{
  "accessors": [
    {
      "bufferView": 2,
      "componentType": 5126,
      "count": 2531,
      "max": [
        0.5344449877738953,
        -0.8968729972839355,
        0.5087419748306274
      ],
      "min": [
        -0.5169259905815125,
        -2.9866890907287598,
        -1.6717859506607056
      ],
      "type": "VEC3"
    },
    {
      "bufferView": 2,
      "byteOffset": 30372,
      "componentType": 5126,
      "count": 2531,
      "max": [
        0.9997963309288025,
        0.999773383140564,
        0.9998713731765747
      ],
      "min": [
        -0.9999127388000488,
        -0.9983172416687012,
        -0.9977628588676453
      ],
      "type": "VEC3"
    },
    {
      "bufferView": 3,
      "componentType": 5126,
      "count": 2531,
      "max": [
        0.9966952204704285,
        0.7220505475997925,
        0.9924798607826233,
        1.0
      ],
      "min": [
        -0.9511528015136719,
        -0.9994309544563293,
        -0.9998623132705688,
        1.0
      ],
      "type": "VEC4"
    },
    {
      "bufferView": 1,
      "componentType": 5126,
      "count": 2531,
      "max": [
        1.997298002243042,
        0.9957810044288635
      ],
      "min": [
        1.0091760158538818,
        0.06003599986433983
      ],
      "type": "VEC2"
    },
    {
      "bufferView": 0,
      "componentType": 5125,
      "count": 14508,
      "type": "SCALAR"
    },
    {
      "bufferView": 2,
      "byteOffset": 60744,
      "componentType": 5126,
      "count": 7973,
      "max": [
        1.3459659814834595,
        -0.11502700299024582,
        -0.5029069781303406
      ],
      "min": [
        -1.3304280042648315,
        -1.7474210262298584,
        -2.2435379028320313
      ],
      "type": "VEC3"
    },
    {
      "bufferView": 2,
      "byteOffset": 156420,
      "componentType": 5126,
      "count": 7973,
      "max": [
        0.9993258714675903,
        0.9989514946937561,
        0.9990178942680359
      ],
      "min": [
        -0.9990394711494446,
        -0.9999312162399292,
        -0.9999035000801086
      ],
      "type": "VEC3"
    },
    {
      "bufferView": 3,
      "byteOffset": 40496,
      "componentType": 5126,
      "count": 7973,
      "max": [
        0.999697208404541,
        0.9992483854293823,
        0.9999856352806091,
        1.0
      ],
      "min": [
        -0.9999971985816956,
        -0.9998129606246948,
        -0.993409276008606,
        -1.0
      ],
      "type": "VEC4"
    },
    {
      "bufferView": 1,
      "byteOffset": 20248,
      "componentType": 5126,
      "count": 7973,
      "max": [
        2.9941790103912354,
        0.9903209805488586
      ],
      "min": [
        2.0173439979553223,
        0.008698999881744385
      ],
      "type": "VEC2"
    },
    {
      "bufferView": 0,
      "byteOffset": 58032,
      "componentType": 5125,
      "count": 45768,
      "type": "SCALAR"
    },
    {
      "bufferView": 2,
      "byteOffset": 252096,
      "componentType": 5126,
      "count": 28512,
      "max": [
        2.1591479778289795,
        2.1036388874053955,
        2.7294249534606934
      ],
      "min": [
        -2.237696886062622,
        -1.513273000717163,
        -2.817081928253174
      ],
      "type": "VEC3"
    },
    {
      "bufferView": 2,
      "byteOffset": 594240,
      "componentType": 5126,
      "count": 28512,
      "max": [
        0.9999991059303284,
        0.9998666048049927,
        0.999971330165863
      ],
      "min": [
        -0.9999987483024597,
        -0.9999493360519409,
        -0.9998897910118103
      ],
      "type": "VEC3"
    },
    {
      "bufferView": 3,
      "byteOffset": 168064,
      "componentType": 5126,
      "count": 28512,
      "max": [
        0.9994901418685913,
        0.9999426007270813,
        0.9999925494194031,
        1.0
      ],
      "min": [
        -0.999845564365387,
        -0.9999485611915588,
        -0.9999849796295166,
        -1.0
      ],
      "type": "VEC4"
    },
    {
      "bufferView": 1,
      "byteOffset": 84032,
      "componentType": 5126,
      "count": 28512,
      "max": [
        0.9978780150413513,
        0.9946179986000061
      ],
      "min": [
        0.0005000000237487257,
        0.0005000000237487257
      ],
      "type": "VEC2"
    },
    {
      "bufferView": 0,
      "byteOffset": 241104,
      "componentType": 5125,
      "count": 163494,
      "type": "SCALAR"
    }
  ],
  "asset": {
    "extras": {
      "author": "agher08 (https://sketchfab.com/agher08)",
      "license": "CC-BY-4.0 (http://creativecommons.org/licenses/by/4.0/)",
      "source": "https://sketchfab.com/3d-models/human-brain-c9c9d4d671b94345952d012cc2ea7a24",
      "title": "Human Brain"
    },
    "generator": "Sketchfab-14.33.0",
    "version": "2.0"
  },
  "bufferViews": [
    {
      "buffer": 0,
      "byteLength": 895080,
      "name": "floatBufferViews",
      "target": 34963
    },
    {
      "buffer": 0,
      "byteLength": 312128,
      "byteOffset": 895080,
      "byteStride": 8,
      "name": "floatBufferViews",
      "target": 34962
    },
    {
      "buffer": 0,
      "byteLength": 936384,
      "byteOffset": 1207208,
      "byteStride": 12,
      "name": "floatBufferViews",
      "target": 34962
    },
    {
      "buffer": 0,
      "byteLength": 624256,
      "byteOffset": 2143592,
      "byteStride": 16,
      "name": "floatBufferViews",
      "target": 34962
    }
  ],
  "buffers": [
    {
      "byteLength": 2767848,
      "uri": "scene.bin"
    }
  ],
  "images": [
    {
      "uri": "textures/BRAIN_LOW_1001_baseColor.jpeg"
    },
    {
      "uri": "textures/BRAIN_LOW_1001_metallicRoughness.png"
    },
    {
      "uri": "textures/BRAIN_LOW_1001_normal.png"
    },
    {
      "uri": "textures/cerebellum_1003_baseColor.jpeg"
    },
    {
      "uri": "textures/cerebellum_1003_metallicRoughness.png"
    },
    {
      "uri": "textures/cerebellum_1003_normal.png"
    },
    {
      "uri": "textures/BRAIN_STEM_1002_baseColor.jpeg"
    },
    {
      "uri": "textures/BRAIN_STEM_1002_metallicRoughness.png"
    },
    {
      "uri": "textures/BRAIN_STEM_1002_normal.png"
    }
  ],
  "materials": [
    {
      "doubleSided": true,
      "name": "BRAIN_LOW_1001",
      "normalTexture": {
        "index": 2
      },
      "occlusionTexture": {
        "index": 1
      },
      "pbrMetallicRoughness": {
        "baseColorTexture": {
          "index": 0
        },
        "metallicRoughnessTexture": {
          "index": 1
        }
      }
    },
    {
      "doubleSided": true,
      "name": "cerebellum_1003",
      "normalTexture": {
        "index": 5
      },
      "occlusionTexture": {
        "index": 4
      },
      "pbrMetallicRoughness": {
        "baseColorTexture": {
          "index": 3
        },
        "metallicRoughnessTexture": {
          "index": 4
        }
      }
    },
    {
      "doubleSided": true,
      "name": "BRAIN_STEM_1002",
      "normalTexture": {
        "index": 8
      },
      "occlusionTexture": {
        "index": 7
      },
      "pbrMetallicRoughness": {
        "baseColorTexture": {
          "index": 6
        },
        "metallicRoughnessTexture": {
          "index": 7
        }
      }
    }
  ],
  "meshes": [
    {
      "name": "defaultMaterial",
      "primitives": [
        {
          "attributes": {
            "NORMAL": 1,
            "POSITION": 0,
            "TANGENT": 2,
            "TEXCOORD_0": 3
          },
          "indices": 4,
          "material": 2,
          "mode": 4
        }
      ]
    },
    {
      "name": "defaultMaterial",
      "primitives": [
        {
          "attributes": {
            "NORMAL": 6,
            "POSITION": 5,
            "TANGENT": 7,
            "TEXCOORD_0": 8
          },
          "indices": 9,
          "material": 1,
          "mode": 4
        }
      ]
    },
    {
      "name": "defaultMaterial",
      "primitives": [
        {
          "attributes": {
            "NORMAL": 11,
            "POSITION": 10,
            "TANGENT": 12,
            "TEXCOORD_0": 13
          },
          "indices": 14,
          "material": 0,
          "mode": 4
        }
      ]
    }
  ],
  "nodes": [
    {
      "children": [
        1
      ],
      "matrix": [
        1.0,
        0.0,
        0.0,
        0.0,
        0.0,
        2.220446049250313e-16,
        -1.0,
        0.0,
        0.0,
        1.0,
        2.220446049250313e-16,
        0.0,
        0.0,
        0.0,
        0.0,
        1.0
      ],
      "name": "Sketchfab_model"
    },
    {
      "children": [
        2,
        4,
        6
      ],
      "matrix": [
        1.0,
        0.0,
        0.0,
        0.0,
        0.0,
        -4.371139006309477e-08,
        0.999999999999999,
        0.0,
        0.0,
        -0.999999999999999,
        -4.371139006309477e-08,
        0.0,
        0.0,
        0.0,
        0.0,
        1.0
      ],
      "name": "Collada visual scene group"
    },
    {
      "children": [
        3
      ],
      "name": "BRAIN"
    },
    {
      "mesh": 0,
      "name": "defaultMaterial"
    },
    {
      "children": [
        5
      ],
      "name": "cerebellum"
    },
    {
      "mesh": 1,
      "name": "defaultMaterial"
    },
    {
      "children": [
        7
      ],
      "name": "BRAIN_LOW"
    },
    {
      "mesh": 2,
      "name": "defaultMaterial"
    }
  ],
  "samplers": [
    {
      "magFilter": 9729,
      "minFilter": 9987,
      "wrapS": 10497,
      "wrapT": 10497
    }
  ],
  "scene": 0,
  "scenes": [
    {
      "name": "Sketchfab_Scene",
      "nodes": [
        0
      ]
    }
  ],
  "textures": [
    {
      "sampler": 0,
      "source": 0
    },
    {
      "sampler": 0,
      "source": 1
    },
    {
      "sampler": 0,
      "source": 2
    },
    {
      "sampler": 0,
      "source": 3
    },
    {
      "sampler": 0,
      "source": 4
    },
    {
      "sampler": 0,
      "source": 5
    },
    {
      "sampler": 0,
      "source": 6
    },
    {
      "sampler": 0,
      "source": 7
    },
    {
      "sampler": 0,
      "source": 8
    }
  ]
}
